<?xml version="1.0" encoding="UTF-8"?>
<svg xmlns="http://www.w3.org/2000/svg" xmlns:xlink="http://www.w3.org/1999/xlink" width="24pt" height="24pt" viewBox="0 0 24 24" version="1.1">
<g id="surface1">
<path style=" stroke:none;fill-rule:nonzero;fill:#5B5B5B;fill-opacity:1;" d="M 10 2 L 9 3 L 4 3 L 4 5 L 5 5 L 5 20 C 5 21.09375 5.90625 22 7 22 L 15 22 L 15 20 L 7 20 L 7 5 L 17 5 L 17 15 L 19 15 L 19 5 L 20 5 L 20 3 L 15 3 L 14 2 Z M 9 7 L 9 18 L 11 18 L 11 7 Z M 13 7 L 13 18 L 15 18 L 15 7 Z M 17.878906 16.929688 L 16.464844 18.34375 L 18.585938 20.464844 L 16.464844 22.585938 L 17.878906 24 L 20 21.878906 L 22.121094 24 L 23.535156 22.585938 L 21.414063 20.464844 L 23.535156 18.34375 L 22.121094 16.929688 L 20 19.050781 Z "/>
</g>
</svg>
